<?xml version="1.0" encoding="utf-8"?>
<!-- Generator: Adobe Illustrator 24.1.0, SVG Export Plug-In . SVG Version: 6.00 Build 0)  -->
<svg version="1.1" id="Layer_1" xmlns="http://www.w3.org/2000/svg" xmlns:xlink="http://www.w3.org/1999/xlink" x="0px" y="0px"
	 viewBox="0 0 225 125" style="enable-background:new 0 0 225 125;" xml:space="preserve">
<style type="text/css">
	.st0{fill:#FFFFFF;}
	.st1{fill:#C1272D;}
	.st2{fill:#FCEE21;}
</style>
<g>
	<rect class="st0" width="225" height="125"/>
	
		<rect x="59" y="-41" transform="matrix(-1.836970e-16 1 -1 -1.836970e-16 175.0001 -49.9996)" class="st1" width="107" height="207"/>
	<g>
		<g>
			<path d="M31.1,105.35c-0.27,0.19-0.7,0.44-1.3,0.75c-0.6,0.31-1.21,0.58-1.83,0.81c-0.62,0.23-1.18,0.38-1.69,0.46
				c-0.51,0.08-0.96,0.06-1.38-0.07s-0.78-0.37-1.1-0.74c-0.32-0.37-0.61-0.91-0.87-1.6l-7-19c-0.21-0.56-0.21-1.06-0.02-1.48
				c0.2-0.42,0.53-0.83,1-1.21c0.79-0.66,1.75-1.28,2.87-1.86c1.12-0.58,2.26-1.09,3.45-1.52c3.71-1.37,6.84-1.62,9.39-0.76
				c2.55,0.86,4.32,2.65,5.32,5.37c0.49,1.32,0.71,2.58,0.69,3.8c-0.03,1.22-0.31,2.36-0.84,3.43c-0.54,1.07-1.35,2.04-2.45,2.92
				c-1.1,0.88-2.46,1.62-4.11,2.22l-2.86,1.06L31.1,105.35z M28.42,91.63c1.13-0.42,1.9-1,2.31-1.75c0.41-0.75,0.42-1.66,0.02-2.73
				c-0.38-1.02-0.98-1.69-1.82-2.01c-0.84-0.32-1.86-0.26-3.07,0.19c-0.43,0.16-0.79,0.3-1.06,0.42c-0.28,0.12-0.55,0.26-0.83,0.42
				l2.3,6.25L28.42,91.63z"/>
			<path d="M51,89.22l2.85,7.74c-0.27,0.19-0.7,0.44-1.3,0.75c-0.6,0.31-1.21,0.58-1.83,0.81c-0.62,0.23-1.18,0.38-1.69,0.46
				c-0.5,0.08-0.96,0.06-1.36-0.07c-0.4-0.13-0.76-0.38-1.08-0.75c-0.32-0.37-0.61-0.9-0.87-1.6l-7-19
				c-0.21-0.56-0.21-1.06-0.02-1.48c0.2-0.42,0.53-0.83,1-1.21c0.79-0.66,1.77-1.29,2.93-1.88c1.15-0.59,2.42-1.14,3.79-1.65
				c3.71-1.37,6.79-1.62,9.25-0.75c2.46,0.87,4.18,2.63,5.16,5.29c0.61,1.67,0.71,3.25,0.29,4.75c-0.42,1.5-1.11,2.79-2.05,3.87
				c1.45,0.96,2.86,1.85,4.23,2.66c1.37,0.81,2.49,1.58,3.38,2.33c0.08,1.04-0.15,1.94-0.68,2.7s-1.24,1.3-2.12,1.63
				c-0.59,0.22-1.13,0.34-1.61,0.36s-0.93-0.03-1.34-0.15c-0.41-0.12-0.82-0.31-1.22-0.56c-0.4-0.25-0.79-0.53-1.18-0.85l-5.39-4.2
				L51,89.22z M51.57,82.91c1.02-0.38,1.73-0.94,2.13-1.68c0.4-0.74,0.41-1.62,0.03-2.65s-0.99-1.67-1.84-1.96
				c-0.85-0.28-1.99-0.16-3.42,0.37c-0.4,0.15-0.72,0.28-0.95,0.4c-0.23,0.12-0.49,0.26-0.76,0.42l2.23,6.05L51.57,82.91z"/>
			<path d="M65.15,79.05c-0.77-2.1-1.13-4.07-1.06-5.93c0.06-1.86,0.47-3.54,1.21-5.05c0.74-1.51,1.78-2.83,3.12-3.97
				c1.34-1.14,2.91-2.04,4.71-2.7s3.58-1,5.33-1c1.75-0.01,3.41,0.32,4.97,0.99c1.56,0.66,2.96,1.68,4.22,3.05
				c1.25,1.37,2.27,3.1,3.04,5.2c0.77,2.1,1.14,4.08,1.09,5.94c-0.04,1.86-0.44,3.55-1.18,5.06c-0.74,1.51-1.79,2.84-3.14,3.98
				s-2.94,2.05-4.77,2.72s-3.63,1.01-5.4,1.01c-1.77,0-3.43-0.35-4.96-1.03c-1.54-0.69-2.92-1.72-4.16-3.09
				C66.92,82.84,65.91,81.12,65.15,79.05z M72.41,76.37c0.9,2.45,2.07,4.09,3.51,4.93c1.44,0.84,2.99,0.96,4.66,0.34
				c1.69-0.62,2.81-1.72,3.36-3.3c0.55-1.58,0.37-3.59-0.53-6.04c-0.89-2.42-2.05-4.05-3.48-4.9c-1.43-0.85-2.99-0.96-4.68-0.34
				c-1.67,0.61-2.78,1.71-3.35,3.27C71.34,71.92,71.51,73.93,72.41,76.37z"/>
			<path d="M108.65,77.67c-0.46,0.17-1,0.35-1.63,0.55c-0.63,0.2-1.29,0.38-1.97,0.55c-0.69,0.16-1.38,0.3-2.07,0.42
				c-0.69,0.12-1.34,0.17-1.96,0.15c-1.69-0.02-2.79-0.73-3.3-2.13l-6.95-18.83c-0.21-0.56-0.21-1.06-0.02-1.48
				c0.2-0.42,0.53-0.83,1-1.21c0.79-0.66,1.85-1.32,3.17-1.97c1.32-0.65,2.7-1.25,4.15-1.78c3.44-1.27,6.3-1.67,8.58-1.2
				c2.28,0.47,3.87,1.92,4.76,4.34c0.45,1.21,0.48,2.38,0.1,3.51c-0.38,1.13-1.08,2.12-2.12,2.96c1.48-0.12,2.86,0.15,4.13,0.82
				c1.27,0.66,2.18,1.75,2.73,3.25c0.98,2.66,0.72,5-0.79,7S112.36,76.31,108.65,77.67z M100.3,63.11l2.94-1.09
				c1.16-0.43,1.92-0.95,2.28-1.57c0.37-0.62,0.39-1.35,0.09-2.19c-0.27-0.73-0.78-1.19-1.55-1.4c-0.76-0.21-1.75-0.09-2.96,0.36
				c-0.4,0.15-0.86,0.33-1.38,0.55c-0.51,0.22-0.91,0.41-1.18,0.57L100.3,63.11z M103.93,72.96c0.42-0.03,0.93-0.14,1.53-0.31
				c0.61-0.18,1.18-0.37,1.71-0.56c1.08-0.4,1.89-0.95,2.44-1.65c0.55-0.71,0.65-1.53,0.3-2.47c-0.33-0.89-0.86-1.41-1.59-1.57
				c-0.73-0.16-1.7-0.01-2.91,0.43l-3.31,1.22L103.93,72.96z"/>
			<path d="M127.56,70.11c-1.16,0.43-2.19,0.43-3.11,0c-0.92-0.42-1.59-1.21-2.02-2.37l-7.69-20.85c0.28-0.16,0.72-0.41,1.33-0.74
				c0.61-0.33,1.21-0.61,1.8-0.83c0.62-0.23,1.18-0.38,1.69-0.46c0.51-0.08,0.96-0.06,1.38,0.07c0.41,0.12,0.78,0.37,1.1,0.74
				c0.32,0.37,0.61,0.91,0.87,1.61l5.87,15.93L138,59.8c0.3,0.23,0.62,0.56,0.96,1c0.35,0.44,0.62,0.93,0.81,1.46
				c0.4,1.08,0.45,1.92,0.15,2.53c-0.29,0.61-0.82,1.06-1.57,1.33L127.56,70.11z"/>
			<path d="M136.06,43.33c-0.43-1.16-0.43-2.19,0-3.11c0.42-0.92,1.21-1.59,2.37-2.02l13.31-4.91c0.3,0.23,0.61,0.55,0.94,0.98
				c0.33,0.43,0.59,0.91,0.79,1.45c0.38,1.02,0.42,1.83,0.14,2.42c-0.29,0.59-0.79,1.03-1.52,1.29l-8.51,3.14l1.38,3.75l9.07-3.35
				c0.3,0.23,0.61,0.55,0.93,0.96c0.32,0.42,0.58,0.89,0.78,1.43c0.38,1.02,0.43,1.83,0.16,2.42c-0.27,0.59-0.77,1.02-1.49,1.28
				l-7.42,2.74l1.56,4.24l10.37-3.82c0.3,0.23,0.61,0.55,0.94,0.98c0.33,0.43,0.59,0.91,0.79,1.45c0.38,1.02,0.43,1.84,0.14,2.44
				c-0.28,0.61-0.78,1.04-1.51,1.31l-11.78,4.34c-1.16,0.43-2.19,0.43-3.12,0c-0.92-0.42-1.59-1.21-2.02-2.37L136.06,43.33z"/>
			<path d="M180.3,43.7c-0.24,0.42-0.6,0.83-1.09,1.2c-0.49,0.38-1.09,0.7-1.82,0.97c-0.97,0.36-1.81,0.53-2.53,0.52
				c-0.72-0.01-1.29-0.27-1.69-0.8c-1.62-2.09-2.95-3.78-3.97-5.06c-1.02-1.29-1.87-2.43-2.55-3.44l-0.2,0.07
				c0.5,1.62,0.98,3.08,1.42,4.4c0.44,1.32,0.88,2.6,1.32,3.84c0.44,1.24,0.88,2.5,1.3,3.78c0.43,1.28,0.88,2.7,1.36,4.26
				c-0.3,0.26-0.71,0.54-1.24,0.85c-0.53,0.3-1.08,0.56-1.64,0.77c-1.18,0.44-2.17,0.59-2.97,0.45c-0.8-0.13-1.38-0.7-1.75-1.69
				l-6.41-21c0.09-0.43,0.42-0.98,1-1.65s1.52-1.25,2.84-1.74c1.42-0.53,2.62-0.71,3.59-0.57c0.97,0.15,1.83,0.65,2.57,1.5
				c0.48,0.56,1.02,1.2,1.61,1.93c0.59,0.73,1.19,1.49,1.8,2.27c0.61,0.78,1.21,1.56,1.8,2.34c0.59,0.78,1.12,1.47,1.6,2.09
				l0.2-0.07c-0.19-2.5-0.35-4.92-0.48-7.27c-0.13-2.35-0.19-4.33-0.18-5.96c0.32-0.36,0.78-0.74,1.35-1.12
				c0.58-0.38,1.26-0.72,2.04-1c1.32-0.49,2.46-0.69,3.44-0.6c0.98,0.08,1.67,0.46,2.07,1.14c0.31,0.5,0.72,1.28,1.26,2.35
				c0.53,1.07,1.12,2.28,1.77,3.63c0.65,1.35,1.33,2.78,2.04,4.29c0.71,1.51,1.39,2.96,2.04,4.36c0.65,1.39,1.24,2.68,1.76,3.84
				c0.52,1.17,0.91,2.07,1.18,2.7c-0.36,0.44-0.76,0.81-1.22,1.11c-0.45,0.3-1.07,0.6-1.85,0.89c-1.02,0.38-1.95,0.52-2.78,0.43
				c-0.83-0.09-1.46-0.64-1.89-1.64c-1.24-2.87-2.31-5.47-3.22-7.79c-0.9-2.33-1.69-4.26-2.35-5.82l-0.2,0.07
				c0.12,1.15,0.21,2.61,0.29,4.38C179.99,38.7,180.12,40.96,180.3,43.7z"/>
			<path d="M195.87,18.21c0.23,0.62,0.54,1.52,0.95,2.7c0.4,1.18,0.82,2.46,1.24,3.85c0.42,1.39,0.81,2.79,1.18,4.19
				c0.37,1.41,0.64,2.64,0.82,3.71c-0.08,0.12-0.21,0.26-0.39,0.42c-0.19,0.16-0.39,0.31-0.61,0.46c-0.22,0.14-0.45,0.27-0.68,0.39
				c-0.23,0.12-0.44,0.21-0.63,0.28c-0.78,0.29-1.47,0.41-2.09,0.36c-0.61-0.05-1.12-0.4-1.51-1.05c-0.36-0.57-0.82-1.47-1.38-2.7
				c-0.56-1.23-1.15-2.57-1.78-4.02c-0.63-1.45-1.23-2.89-1.8-4.33c-0.58-1.44-1.05-2.67-1.43-3.69c0.43-0.49,0.95-0.95,1.57-1.38
				c0.62-0.43,1.27-0.77,1.94-1.01c1.1-0.41,2.05-0.47,2.84-0.18S195.48,17.16,195.87,18.21z M195.94,41.27
				c-0.41-1.1-0.4-2.13,0.02-3.1c0.42-0.96,1.24-1.67,2.45-2.12c1.21-0.45,2.29-0.44,3.24,0.02c0.95,0.46,1.62,1.24,2.03,2.34
				c0.41,1.1,0.4,2.14-0.02,3.1c-0.42,0.96-1.24,1.67-2.45,2.12c-1.21,0.45-2.29,0.44-3.24-0.02S196.35,42.38,195.94,41.27z"/>
		</g>
	</g>
	<g>
		<path class="st2" d="M34,106.8c-0.27,0.19-0.7,0.44-1.3,0.75c-0.6,0.31-1.21,0.58-1.83,0.81s-1.18,0.38-1.68,0.46
			c-0.51,0.08-0.96,0.06-1.38-0.06c-0.41-0.12-0.78-0.37-1.1-0.74c-0.32-0.37-0.61-0.91-0.87-1.6l-7-19
			c-0.21-0.56-0.21-1.06-0.02-1.48c0.2-0.42,0.53-0.83,1-1.21c0.79-0.66,1.75-1.28,2.87-1.86c1.11-0.58,2.26-1.09,3.45-1.52
			c3.71-1.37,6.84-1.62,9.39-0.76c2.55,0.86,4.32,2.65,5.32,5.37c0.49,1.32,0.72,2.58,0.69,3.8c-0.03,1.22-0.31,2.36-0.84,3.43
			c-0.54,1.07-1.35,2.04-2.45,2.92c-1.1,0.88-2.47,1.62-4.11,2.22l-2.86,1.05L34,106.8z M31.33,93.08c1.13-0.42,1.9-1,2.31-1.75
			c0.41-0.75,0.42-1.66,0.02-2.73c-0.38-1.02-0.98-1.69-1.82-2.01s-1.86-0.26-3.07,0.19c-0.43,0.16-0.78,0.3-1.06,0.42
			c-0.28,0.12-0.55,0.26-0.83,0.42l2.3,6.25L31.33,93.08z"/>
		<path class="st2" d="M53.91,90.67l2.85,7.74c-0.27,0.19-0.7,0.44-1.3,0.75c-0.6,0.31-1.21,0.58-1.83,0.81
			c-0.62,0.23-1.18,0.38-1.68,0.46c-0.5,0.08-0.96,0.06-1.36-0.07c-0.4-0.13-0.76-0.38-1.08-0.75c-0.32-0.37-0.61-0.9-0.87-1.6
			l-7-19c-0.21-0.56-0.21-1.06-0.02-1.48c0.2-0.42,0.53-0.83,1-1.21c0.79-0.66,1.77-1.29,2.92-1.88c1.16-0.59,2.42-1.14,3.79-1.65
			c3.71-1.37,6.79-1.62,9.25-0.75c2.46,0.87,4.18,2.63,5.16,5.29c0.61,1.67,0.71,3.25,0.29,4.75c-0.42,1.5-1.11,2.79-2.05,3.87
			c1.45,0.96,2.86,1.85,4.23,2.66c1.37,0.81,2.49,1.58,3.38,2.33c0.08,1.04-0.15,1.94-0.68,2.7s-1.24,1.3-2.12,1.63
			c-0.59,0.22-1.13,0.34-1.61,0.36c-0.48,0.03-0.93-0.02-1.34-0.15c-0.41-0.12-0.82-0.31-1.22-0.56c-0.4-0.25-0.79-0.53-1.18-0.85
			l-5.39-4.2L53.91,90.67z M54.47,84.37c1.02-0.38,1.73-0.94,2.13-1.68c0.4-0.74,0.41-1.62,0.03-2.65
			c-0.38-1.02-0.99-1.67-1.84-1.96c-0.85-0.28-1.99-0.16-3.42,0.37c-0.4,0.15-0.72,0.28-0.95,0.4c-0.23,0.12-0.49,0.26-0.76,0.42
			l2.23,6.05L54.47,84.37z"/>
		<path class="st2" d="M68.06,80.5c-0.77-2.1-1.13-4.07-1.06-5.93c0.06-1.86,0.47-3.54,1.21-5.05c0.74-1.51,1.78-2.83,3.12-3.97
			c1.34-1.14,2.91-2.04,4.71-2.7c1.8-0.66,3.58-1,5.33-1s3.41,0.32,4.97,0.99c1.56,0.66,2.96,1.68,4.22,3.05
			c1.25,1.37,2.27,3.1,3.04,5.2c0.77,2.1,1.14,4.08,1.09,5.94c-0.04,1.86-0.44,3.55-1.18,5.06c-0.74,1.51-1.79,2.84-3.14,3.98
			c-1.35,1.14-2.94,2.05-4.77,2.72s-3.63,1.01-5.4,1.01c-1.77,0-3.43-0.35-4.96-1.03c-1.54-0.69-2.92-1.72-4.16-3.09
			C69.82,84.3,68.82,82.58,68.06,80.5z M75.32,77.83c0.9,2.45,2.07,4.09,3.51,4.93c1.44,0.84,2.99,0.96,4.66,0.34
			c1.69-0.62,2.82-1.72,3.36-3.3c0.55-1.58,0.37-3.59-0.53-6.03c-0.89-2.42-2.05-4.05-3.48-4.9c-1.43-0.85-2.99-0.96-4.68-0.34
			c-1.67,0.61-2.78,1.71-3.35,3.27C74.25,73.37,74.41,75.38,75.32,77.83z"/>
		<path class="st2" d="M111.55,79.13c-0.46,0.17-1,0.35-1.63,0.55c-0.63,0.2-1.29,0.38-1.97,0.55c-0.69,0.16-1.38,0.3-2.07,0.42
			c-0.69,0.12-1.34,0.17-1.96,0.15c-1.69-0.02-2.79-0.73-3.3-2.13l-6.94-18.83c-0.21-0.56-0.21-1.06-0.02-1.48
			c0.2-0.42,0.53-0.83,1-1.21c0.79-0.66,1.85-1.32,3.17-1.97c1.32-0.65,2.7-1.25,4.15-1.78c3.44-1.27,6.3-1.67,8.58-1.19
			c2.28,0.47,3.87,1.92,4.76,4.34c0.45,1.21,0.48,2.38,0.1,3.51c-0.38,1.13-1.08,2.12-2.12,2.96c1.48-0.12,2.86,0.15,4.13,0.82
			c1.27,0.66,2.18,1.75,2.73,3.25c0.98,2.66,0.72,5-0.79,7C117.87,76.07,115.26,77.76,111.55,79.13z M103.21,64.57l2.94-1.09
			c1.16-0.43,1.92-0.95,2.28-1.57s0.39-1.35,0.09-2.19c-0.27-0.73-0.78-1.19-1.55-1.4c-0.76-0.21-1.75-0.09-2.96,0.36
			c-0.4,0.15-0.86,0.33-1.38,0.55c-0.51,0.22-0.91,0.41-1.18,0.57L103.21,64.57z M106.83,74.41c0.42-0.03,0.93-0.14,1.53-0.31
			c0.61-0.18,1.18-0.37,1.72-0.56c1.08-0.4,1.89-0.95,2.44-1.65c0.55-0.71,0.65-1.53,0.3-2.47c-0.33-0.89-0.86-1.41-1.59-1.57
			c-0.73-0.16-1.7-0.01-2.91,0.43l-3.31,1.22L106.83,74.41z"/>
		<path class="st2" d="M130.46,71.56c-1.16,0.43-2.19,0.43-3.11,0c-0.92-0.42-1.59-1.21-2.02-2.37l-7.69-20.85
			c0.28-0.16,0.72-0.41,1.33-0.74c0.61-0.33,1.21-0.61,1.8-0.83c0.62-0.23,1.18-0.38,1.69-0.46c0.5-0.08,0.96-0.06,1.38,0.07
			c0.41,0.12,0.78,0.37,1.1,0.74c0.32,0.37,0.61,0.91,0.87,1.61l5.87,15.93l9.24-3.41c0.3,0.23,0.62,0.56,0.96,1
			c0.34,0.44,0.62,0.93,0.81,1.46c0.4,1.08,0.45,1.92,0.15,2.53c-0.29,0.61-0.82,1.06-1.57,1.33L130.46,71.56z"/>
		<path class="st2" d="M138.97,44.78c-0.43-1.16-0.43-2.19,0-3.11c0.42-0.92,1.21-1.59,2.37-2.02l13.31-4.91
			c0.3,0.23,0.61,0.55,0.93,0.98c0.33,0.43,0.59,0.91,0.79,1.45c0.38,1.02,0.42,1.83,0.14,2.42c-0.29,0.59-0.79,1.03-1.52,1.29
			l-8.51,3.14l1.38,3.75l9.07-3.35c0.3,0.23,0.61,0.55,0.93,0.96c0.32,0.42,0.58,0.89,0.78,1.43c0.38,1.02,0.43,1.83,0.16,2.42
			c-0.27,0.59-0.77,1.02-1.5,1.28l-7.42,2.74l1.56,4.23l10.37-3.82c0.3,0.23,0.61,0.55,0.94,0.98c0.33,0.43,0.59,0.91,0.79,1.45
			c0.38,1.02,0.43,1.84,0.15,2.44c-0.28,0.61-0.78,1.04-1.51,1.31l-11.78,4.34c-1.16,0.43-2.19,0.43-3.11,0
			c-0.92-0.42-1.59-1.21-2.02-2.37L138.97,44.78z"/>
		<path class="st2" d="M183.21,45.15c-0.24,0.43-0.6,0.83-1.09,1.2c-0.49,0.38-1.09,0.7-1.82,0.97c-0.97,0.36-1.81,0.53-2.53,0.52
			s-1.29-0.27-1.69-0.8c-1.62-2.09-2.95-3.77-3.97-5.06c-1.02-1.29-1.87-2.43-2.55-3.44l-0.2,0.07c0.5,1.62,0.98,3.08,1.42,4.4
			s0.88,2.6,1.33,3.84c0.44,1.24,0.88,2.5,1.3,3.78c0.43,1.28,0.88,2.7,1.36,4.26c-0.3,0.26-0.71,0.54-1.24,0.85
			c-0.53,0.3-1.08,0.56-1.64,0.77c-1.18,0.44-2.17,0.59-2.97,0.45c-0.8-0.13-1.38-0.7-1.75-1.69l-6.41-21
			c0.09-0.43,0.42-0.98,1-1.65c0.58-0.67,1.52-1.25,2.84-1.74c1.42-0.53,2.62-0.71,3.59-0.57c0.97,0.15,1.83,0.65,2.57,1.5
			c0.48,0.56,1.01,1.2,1.6,1.93c0.59,0.73,1.19,1.49,1.8,2.27c0.61,0.78,1.21,1.56,1.8,2.34c0.59,0.78,1.12,1.47,1.6,2.09l0.2-0.07
			c-0.19-2.5-0.35-4.92-0.48-7.27c-0.13-2.35-0.19-4.33-0.18-5.96c0.32-0.36,0.78-0.74,1.35-1.12c0.58-0.38,1.26-0.72,2.04-1
			c1.32-0.49,2.47-0.69,3.44-0.6c0.98,0.08,1.67,0.46,2.07,1.14c0.31,0.5,0.72,1.28,1.26,2.35c0.53,1.07,1.12,2.28,1.77,3.63
			c0.65,1.35,1.33,2.78,2.04,4.29c0.71,1.51,1.39,2.96,2.04,4.36c0.65,1.39,1.24,2.68,1.76,3.84c0.52,1.17,0.91,2.07,1.18,2.7
			c-0.36,0.44-0.76,0.81-1.22,1.11c-0.45,0.3-1.07,0.6-1.85,0.89c-1.02,0.38-1.95,0.52-2.77,0.43c-0.83-0.09-1.46-0.64-1.89-1.64
			c-1.24-2.87-2.31-5.47-3.22-7.79c-0.9-2.33-1.69-4.26-2.35-5.82l-0.2,0.08c0.12,1.15,0.21,2.61,0.29,4.38
			C182.89,40.15,183.02,42.41,183.21,45.15z"/>
		<path class="st2" d="M198.77,19.67c0.23,0.62,0.54,1.52,0.95,2.7c0.4,1.18,0.82,2.46,1.24,3.85c0.42,1.39,0.81,2.79,1.18,4.19
			c0.37,1.41,0.64,2.64,0.82,3.71c-0.08,0.12-0.21,0.26-0.39,0.42c-0.19,0.16-0.39,0.31-0.61,0.46c-0.22,0.14-0.45,0.27-0.68,0.39
			c-0.23,0.12-0.44,0.21-0.63,0.28c-0.78,0.29-1.48,0.41-2.09,0.36c-0.61-0.05-1.12-0.4-1.51-1.05c-0.36-0.57-0.82-1.47-1.38-2.7
			s-1.15-2.57-1.78-4.02s-1.23-2.89-1.8-4.33c-0.58-1.44-1.05-2.67-1.43-3.69c0.43-0.49,0.95-0.95,1.58-1.38
			c0.62-0.43,1.27-0.77,1.94-1.01c1.1-0.41,2.05-0.47,2.84-0.18C197.8,17.95,198.39,18.62,198.77,19.67z M198.85,42.73
			c-0.41-1.1-0.4-2.13,0.02-3.1c0.42-0.96,1.24-1.67,2.45-2.12c1.21-0.45,2.29-0.44,3.24,0.02c0.95,0.46,1.63,1.24,2.03,2.34
			c0.41,1.1,0.4,2.14-0.02,3.1s-1.24,1.67-2.45,2.12c-1.21,0.45-2.29,0.44-3.24-0.02C199.93,44.61,199.25,43.83,198.85,42.73z"/>
	</g>
</g>
</svg>
